<svg xmlns="http://www.w3.org/2000/svg" xmlns:xlink="http://www.w3.org/1999/xlink" width="1920" zoomAndPan="magnify" viewBox="0 0 1440 809.999993" height="1080" preserveAspectRatio="xMidYMid meet" version="1.0"><defs><g/><clipPath id="87cff4f8bb"><path d="M 0.558594 15 L 97 15 L 97 97 L 0.558594 97 Z M 0.558594 15 " clip-rule="nonzero"/></clipPath><clipPath id="dfb8a9e01e"><rect x="0" width="510" y="0" height="148"/></clipPath></defs><g transform="matrix(1, 0, 0, 1, 472, 331)"><g clip-path="url(#dfb8a9e01e)"><g clip-path="url(#87cff4f8bb)"><g fill="#000000" fill-opacity="1"><g transform="translate(0.714406, 96.586384)"><g><path d="M 38.390625 0 C 36.828125 0 35.203125 -0.34375 33.515625 -1.03125 C 31.828125 -1.726562 30.242188 -2.875 28.765625 -4.46875 C 27.296875 -6.0625 26.109375 -8.164062 25.203125 -10.78125 C 24.296875 -13.40625 23.84375 -16.648438 23.84375 -20.515625 C 23.84375 -25.867188 24.335938 -30.953125 25.328125 -35.765625 C 26.328125 -40.585938 27.488281 -45.132812 28.8125 -49.40625 C 30.144531 -53.6875 31.304688 -57.738281 32.296875 -61.5625 C 33.285156 -65.394531 33.78125 -68.96875 33.78125 -72.28125 C 33.78125 -74.925781 32.546875 -76.25 30.078125 -76.25 C 27.796875 -76.25 25.285156 -75.691406 22.546875 -74.578125 C 19.804688 -73.460938 17.1875 -71.863281 14.6875 -69.78125 C 12.1875 -67.707031 10.132812 -65.253906 8.53125 -62.421875 C 6.9375 -59.597656 6.140625 -56.46875 6.140625 -53.03125 C 6.140625 -51.882812 5.78125 -51.3125 5.0625 -51.3125 C 4.519531 -51.3125 3.84375 -51.734375 3.03125 -52.578125 C 2.21875 -53.421875 1.507812 -54.609375 0.90625 -56.140625 C 0.300781 -57.679688 0 -59.445312 0 -61.4375 C 0 -63.90625 0.734375 -66.175781 2.203125 -68.25 C 3.679688 -70.332031 5.609375 -72.1875 7.984375 -73.8125 C 10.367188 -75.4375 12.929688 -76.804688 15.671875 -77.921875 C 18.410156 -79.035156 21.046875 -79.878906 23.578125 -80.453125 C 26.109375 -81.023438 28.21875 -81.3125 29.90625 -81.3125 C 33.15625 -81.3125 35.726562 -80.722656 37.625 -79.546875 C 39.519531 -78.367188 40.875 -76.769531 41.6875 -74.75 C 42.5 -72.738281 42.90625 -70.4375 42.90625 -67.84375 C 42.96875 -64.71875 42.59375 -61.238281 41.78125 -57.40625 C 40.96875 -53.582031 40.019531 -49.53125 38.9375 -45.25 C 37.851562 -40.976562 36.90625 -36.644531 36.09375 -32.25 C 35.28125 -27.851562 34.875 -23.546875 34.875 -19.328125 C 34.875 -14.929688 35.296875 -11.664062 36.140625 -9.53125 C 36.984375 -7.394531 37.976562 -6.328125 39.125 -6.328125 C 40.863281 -6.328125 42.441406 -7.332031 43.859375 -9.34375 C 45.273438 -11.363281 46.570312 -14.085938 47.75 -17.515625 C 48.925781 -20.953125 50.023438 -24.796875 51.046875 -29.046875 C 52.066406 -33.296875 53.085938 -37.675781 54.109375 -42.1875 C 55.140625 -46.707031 56.179688 -51.070312 57.234375 -55.28125 C 58.285156 -59.5 59.445312 -63.238281 60.71875 -66.5 C 61.195312 -67.695312 61.976562 -68.703125 63.0625 -69.515625 C 64.144531 -70.328125 65.347656 -70.941406 66.671875 -71.359375 C 67.992188 -71.785156 69.226562 -72 70.375 -72 C 71.519531 -72 72.378906 -71.757812 72.953125 -71.28125 C 73.523438 -70.800781 73.597656 -70.078125 73.171875 -69.109375 C 71.066406 -64.296875 69.351562 -59.160156 68.03125 -53.703125 C 66.707031 -48.253906 65.742188 -42.894531 65.140625 -37.625 C 64.535156 -32.351562 64.234375 -27.519531 64.234375 -23.125 C 64.234375 -20 64.535156 -17.15625 65.140625 -14.59375 C 65.742188 -12.03125 66.539062 -10.007812 67.53125 -8.53125 C 68.519531 -7.0625 69.585938 -6.328125 70.734375 -6.328125 C 72.242188 -6.328125 73.851562 -7.332031 75.5625 -9.34375 C 77.28125 -11.363281 78.984375 -14.03125 80.671875 -17.34375 C 82.359375 -20.65625 83.894531 -24.34375 85.28125 -28.40625 C 86.664062 -32.476562 87.78125 -36.59375 88.625 -40.75 C 89.46875 -44.90625 89.890625 -48.789062 89.890625 -52.40625 C 89.890625 -56.675781 89.585938 -60.507812 88.984375 -63.90625 C 88.378906 -67.3125 87.28125 -70.1875 85.6875 -72.53125 C 84.09375 -74.882812 81.789062 -76.609375 78.78125 -77.703125 C 77.507812 -78.179688 77.25 -78.898438 78 -79.859375 C 78.757812 -80.828125 80.222656 -81.3125 82.390625 -81.3125 C 86.910156 -81.3125 90.207031 -79.050781 92.28125 -74.53125 C 94.363281 -70.007812 95.40625 -63.382812 95.40625 -54.65625 C 95.40625 -50.320312 95 -45.671875 94.1875 -40.703125 C 93.375 -35.734375 92.179688 -30.851562 90.609375 -26.0625 C 89.046875 -21.269531 87.191406 -16.898438 85.046875 -12.953125 C 82.910156 -9.015625 80.503906 -5.867188 77.828125 -3.515625 C 75.148438 -1.171875 72.273438 0 69.203125 0 C 66.972656 0 64.710938 -0.722656 62.421875 -2.171875 C 60.140625 -3.617188 58.210938 -5.785156 56.640625 -8.671875 C 55.078125 -11.566406 54.175781 -15.179688 53.9375 -19.515625 C 52.726562 -15.898438 51.34375 -12.613281 49.78125 -9.65625 C 48.21875 -6.707031 46.484375 -4.359375 44.578125 -2.609375 C 42.679688 -0.867188 40.617188 0 38.390625 0 Z M 38.390625 0 "/></g></g></g></g><g fill="#000000" fill-opacity="1"><g transform="translate(97.384339, 96.586384)"><g><path d="M 13.546875 0 C 9.515625 0 6.171875 -1.488281 3.515625 -4.46875 C 0.867188 -7.445312 -0.453125 -11.53125 -0.453125 -16.71875 C -0.453125 -19.789062 0.0234375 -22.832031 0.984375 -25.84375 C 1.953125 -28.851562 3.296875 -31.617188 5.015625 -34.140625 C 6.734375 -36.671875 8.78125 -38.691406 11.15625 -40.203125 C 13.53125 -41.710938 16.101562 -42.46875 18.875 -42.46875 C 21.101562 -42.46875 22.941406 -41.847656 24.390625 -40.609375 C 25.835938 -39.367188 26.953125 -37.878906 27.734375 -36.140625 C 28.753906 -37.398438 29.988281 -38.359375 31.4375 -39.015625 C 32.882812 -39.679688 34.269531 -40.03125 35.59375 -40.0625 C 36.914062 -40.09375 37.921875 -39.851562 38.609375 -39.34375 C 39.304688 -38.832031 39.414062 -38.035156 38.9375 -36.953125 C 38.269531 -35.441406 37.679688 -33.617188 37.171875 -31.484375 C 36.660156 -29.347656 36.238281 -27.148438 35.90625 -24.890625 C 35.582031 -22.628906 35.328125 -20.535156 35.140625 -18.609375 C 34.960938 -16.679688 34.875 -15.113281 34.875 -13.90625 C 34.875 -10.957031 35.082031 -8.957031 35.5 -7.90625 C 35.925781 -6.851562 36.441406 -6.328125 37.046875 -6.328125 C 38.972656 -6.328125 41.171875 -8.492188 43.640625 -12.828125 C 46.109375 -17.160156 48.90625 -23.273438 52.03125 -31.171875 C 52.695312 -32.734375 53.476562 -33.601562 54.375 -33.78125 C 55.28125 -33.96875 55.988281 -33.609375 56.5 -32.703125 C 57.019531 -31.796875 57.007812 -30.53125 56.46875 -28.90625 C 54.539062 -23.125 52.382812 -18.066406 50 -13.734375 C 47.625 -9.398438 45.203125 -6.023438 42.734375 -3.609375 C 40.265625 -1.203125 37.914062 0 35.6875 0 C 32.851562 0 30.546875 -0.734375 28.765625 -2.203125 C 26.992188 -3.679688 25.6875 -5.6875 24.84375 -8.21875 C 23.519531 -5.925781 21.921875 -3.984375 20.046875 -2.390625 C 18.179688 -0.796875 16.015625 0 13.546875 0 Z M 11.296875 -12.109375 C 11.296875 -10.484375 11.59375 -9.113281 12.1875 -8 C 12.789062 -6.882812 13.578125 -6.328125 14.546875 -6.328125 C 15.804688 -6.328125 17.097656 -7.210938 18.421875 -8.984375 C 19.753906 -10.765625 20.960938 -13.203125 22.046875 -16.296875 C 23.128906 -19.398438 23.878906 -22.941406 24.296875 -26.921875 C 24.660156 -30.296875 24.375 -32.613281 23.4375 -33.875 C 22.507812 -35.144531 21.472656 -35.78125 20.328125 -35.78125 C 19.179688 -35.78125 18.082031 -35.097656 17.03125 -33.734375 C 15.976562 -32.378906 15.015625 -30.570312 14.140625 -28.3125 C 13.265625 -26.0625 12.570312 -23.519531 12.0625 -20.6875 C 11.550781 -17.851562 11.296875 -14.992188 11.296875 -12.109375 Z M 11.296875 -12.109375 "/></g></g></g><g fill="#000000" fill-opacity="1"><g transform="translate(146.080703, 96.586384)"><g><path d="M 33.15625 0 C 31.101562 0 29.398438 -0.628906 28.046875 -1.890625 C 26.691406 -3.160156 25.679688 -4.742188 25.015625 -6.640625 C 24.359375 -8.535156 24.03125 -10.476562 24.03125 -12.46875 C 24.03125 -14.570312 24.238281 -16.769531 24.65625 -19.0625 C 25.082031 -21.351562 25.503906 -23.488281 25.921875 -25.46875 C 26.347656 -27.457031 26.585938 -29.066406 26.640625 -30.296875 C 26.703125 -31.535156 26.40625 -32.15625 25.75 -32.15625 C 24.84375 -32.15625 23.832031 -31.445312 22.71875 -30.03125 C 21.601562 -28.625 20.503906 -26.757812 19.421875 -24.4375 C 18.335938 -22.113281 17.34375 -19.613281 16.4375 -16.9375 C 15.539062 -14.257812 14.804688 -11.640625 14.234375 -9.078125 C 13.660156 -6.515625 13.375 -4.300781 13.375 -2.4375 C 13.375 -1.78125 13.113281 -1.269531 12.59375 -0.90625 C 12.082031 -0.539062 11.4375 -0.359375 10.65625 -0.359375 C 9.457031 -0.359375 8.117188 -0.8125 6.640625 -1.71875 C 5.160156 -2.625 3.894531 -4.144531 2.84375 -6.28125 C 1.789062 -8.414062 1.265625 -11.257812 1.265625 -14.8125 C 1.265625 -18.425781 1.414062 -21.707031 1.71875 -24.65625 C 2.019531 -27.613281 2.863281 -30.75 4.25 -34.0625 C 5.09375 -35.988281 6.234375 -37.429688 7.671875 -38.390625 C 9.117188 -39.359375 10.566406 -39.929688 12.015625 -40.109375 C 13.460938 -40.296875 14.648438 -40.175781 15.578125 -39.75 C 16.515625 -39.332031 16.921875 -38.703125 16.796875 -37.859375 C 16.441406 -35.628906 15.828125 -33.414062 14.953125 -31.21875 C 14.078125 -29.019531 13.488281 -26.535156 13.1875 -23.765625 C 16.195312 -29.660156 19.296875 -34.175781 22.484375 -37.3125 C 25.679688 -40.445312 29.03125 -42.015625 32.53125 -42.015625 C 34.457031 -42.015625 36.035156 -41.273438 37.265625 -39.796875 C 38.503906 -38.316406 39.125 -36.523438 39.125 -34.421875 C 39.125 -31.648438 38.710938 -28.800781 37.890625 -25.875 C 37.078125 -22.957031 36.265625 -20.097656 35.453125 -17.296875 C 34.640625 -14.492188 34.234375 -11.832031 34.234375 -9.3125 C 34.234375 -7.320312 34.867188 -6.328125 36.140625 -6.328125 C 36.859375 -6.328125 37.726562 -6.941406 38.75 -8.171875 C 39.78125 -9.410156 40.894531 -11.007812 42.09375 -12.96875 C 43.300781 -14.925781 44.460938 -17.03125 45.578125 -19.28125 C 46.691406 -21.539062 47.695312 -23.707031 48.59375 -25.78125 C 49.5 -27.863281 50.195312 -29.628906 50.6875 -31.078125 C 51.226562 -32.585938 51.929688 -33.476562 52.796875 -33.75 C 53.671875 -34.019531 54.410156 -33.757812 55.015625 -32.96875 C 55.617188 -32.1875 55.679688 -30.953125 55.203125 -29.265625 C 54.835938 -27.941406 54.203125 -26.085938 53.296875 -23.703125 C 52.398438 -21.328125 51.285156 -18.785156 49.953125 -16.078125 C 48.628906 -13.367188 47.09375 -10.796875 45.34375 -8.359375 C 43.601562 -5.921875 41.707031 -3.914062 39.65625 -2.34375 C 37.613281 -0.78125 35.445312 0 33.15625 0 Z M 33.15625 0 "/></g></g></g><g fill="#000000" fill-opacity="1"><g transform="translate(193.421854, 96.586384)"><g><path d="M 34.875 0 C 32.820312 0 30.921875 -0.796875 29.171875 -2.390625 C 27.429688 -3.984375 26.078125 -6.109375 25.109375 -8.765625 C 23.671875 -6.234375 22 -4.140625 20.09375 -2.484375 C 18.195312 -0.828125 16.015625 0 13.546875 0 C 9.515625 0 6.171875 -1.488281 3.515625 -4.46875 C 0.867188 -7.445312 -0.453125 -11.53125 -0.453125 -16.71875 C -0.453125 -19.789062 0.0234375 -22.832031 0.984375 -25.84375 C 1.953125 -28.851562 3.296875 -31.617188 5.015625 -34.140625 C 6.734375 -36.671875 8.78125 -38.691406 11.15625 -40.203125 C 13.53125 -41.710938 16.101562 -42.46875 18.875 -42.46875 C 20.445312 -42.46875 21.832031 -42.132812 23.03125 -41.46875 C 24.238281 -40.800781 25.234375 -39.957031 26.015625 -38.9375 C 26.796875 -42.914062 27.773438 -46.953125 28.953125 -51.046875 C 30.128906 -55.140625 31.648438 -58.875 33.515625 -62.25 C 34.484375 -63.988281 35.765625 -65.335938 37.359375 -66.296875 C 38.953125 -67.265625 40.53125 -67.835938 42.09375 -68.015625 C 43.664062 -68.203125 44.882812 -68.023438 45.75 -67.484375 C 46.625 -66.941406 46.789062 -66.066406 46.25 -64.859375 C 45.164062 -62.273438 43.988281 -59.207031 42.71875 -55.65625 C 41.457031 -52.101562 40.285156 -48.289062 39.203125 -44.21875 C 38.117188 -40.15625 37.226562 -35.953125 36.53125 -31.609375 C 35.84375 -27.273438 35.5 -23.003906 35.5 -18.796875 C 35.5 -15.835938 35.832031 -13.753906 36.5 -12.546875 C 37.164062 -11.347656 37.976562 -10.75 38.9375 -10.75 C 40.863281 -10.75 42.789062 -12.4375 44.71875 -15.8125 C 46.644531 -19.1875 49.082031 -24.304688 52.03125 -31.171875 C 52.695312 -32.734375 53.476562 -33.570312 54.375 -33.6875 C 55.28125 -33.8125 55.988281 -33.4375 56.5 -32.5625 C 57.019531 -31.695312 57.007812 -30.476562 56.46875 -28.90625 C 55.195312 -25.050781 53.734375 -21.390625 52.078125 -17.921875 C 50.421875 -14.460938 48.660156 -11.378906 46.796875 -8.671875 C 44.929688 -5.960938 42.988281 -3.835938 40.96875 -2.296875 C 38.945312 -0.765625 36.914062 0 34.875 0 Z M 11.828125 -14.1875 C 11.828125 -12.132812 12.144531 -10.3125 12.78125 -8.71875 C 13.414062 -7.125 14.1875 -6.328125 15.09375 -6.328125 C 16.414062 -6.328125 17.691406 -7.210938 18.921875 -8.984375 C 20.160156 -10.765625 21.257812 -13.203125 22.21875 -16.296875 C 23.1875 -19.398438 23.878906 -22.941406 24.296875 -26.921875 C 24.660156 -30.296875 24.375 -32.613281 23.4375 -33.875 C 22.507812 -35.144531 21.472656 -35.78125 20.328125 -35.78125 C 18.941406 -35.78125 17.585938 -34.816406 16.265625 -32.890625 C 14.941406 -30.960938 13.867188 -28.367188 13.046875 -25.109375 C 12.234375 -21.859375 11.828125 -18.21875 11.828125 -14.1875 Z M 11.828125 -14.1875 "/></g></g></g><g fill="#000000" fill-opacity="1"><g transform="translate(242.118219, 96.586384)"><g><path d="M 15.8125 0 C 13.28125 0 10.796875 -0.707031 8.359375 -2.125 C 5.921875 -3.539062 3.914062 -5.660156 2.34375 -8.484375 C 0.78125 -11.316406 0 -14.84375 0 -19.0625 C 0 -21.769531 0.460938 -24.492188 1.390625 -27.234375 C 2.328125 -29.972656 3.65625 -32.488281 5.375 -34.78125 C 7.09375 -37.070312 9.125 -38.925781 11.46875 -40.34375 C 13.820312 -41.757812 16.414062 -42.46875 19.25 -42.46875 C 22.613281 -42.46875 25.195312 -41.59375 27 -39.84375 C 28.8125 -38.09375 29.71875 -35.984375 29.71875 -33.515625 C 29.71875 -31.046875 28.9375 -28.890625 27.375 -27.046875 C 25.8125 -25.210938 23.71875 -23.785156 21.09375 -22.765625 C 18.476562 -21.742188 15.601562 -21.171875 12.46875 -21.046875 L 12.46875 -19.609375 C 12.46875 -15.566406 12.914062 -12.34375 13.8125 -9.9375 C 14.71875 -7.53125 16.5 -6.328125 19.15625 -6.328125 C 20.894531 -6.328125 22.695312 -7.078125 24.5625 -8.578125 C 26.4375 -10.085938 28.257812 -12.0625 30.03125 -14.5 C 31.8125 -16.9375 33.453125 -19.597656 34.953125 -22.484375 C 36.460938 -25.378906 37.726562 -28.242188 38.75 -31.078125 C 39.414062 -32.828125 40.1875 -33.726562 41.0625 -33.78125 C 41.9375 -33.84375 42.628906 -33.40625 43.140625 -32.46875 C 43.648438 -31.539062 43.664062 -30.351562 43.1875 -28.90625 C 42.101562 -25.476562 40.703125 -22.0625 38.984375 -18.65625 C 37.265625 -15.25 35.226562 -12.144531 32.875 -9.34375 C 30.53125 -6.550781 27.941406 -4.296875 25.109375 -2.578125 C 22.285156 -0.859375 19.1875 0 15.8125 0 Z M 13.28125 -26.734375 C 15.03125 -26.859375 16.6875 -27.175781 18.25 -27.6875 C 19.8125 -28.195312 21.085938 -28.929688 22.078125 -29.890625 C 23.078125 -30.859375 23.578125 -32.066406 23.578125 -33.515625 C 23.578125 -34.242188 23.394531 -34.953125 23.03125 -35.640625 C 22.675781 -36.328125 21.894531 -36.671875 20.6875 -36.671875 C 18.757812 -36.671875 17.191406 -35.644531 15.984375 -33.59375 C 14.785156 -31.550781 13.882812 -29.265625 13.28125 -26.734375 Z M 13.28125 -26.734375 "/></g></g></g><g fill="#000000" fill-opacity="1"><g transform="translate(277.443383, 96.586384)"><g><path d="M 17.25 0 C 15.320312 0 13.617188 -0.582031 12.140625 -1.75 C 10.671875 -2.925781 9.53125 -4.476562 8.71875 -6.40625 C 7.90625 -8.34375 7.5 -10.363281 7.5 -12.46875 C 7.5 -14.394531 7.800781 -16.304688 8.40625 -18.203125 C 9.007812 -20.097656 9.59375 -21.796875 10.15625 -23.296875 C 10.726562 -24.804688 11.015625 -25.832031 11.015625 -26.375 C 11.015625 -27.21875 10.609375 -27.957031 9.796875 -28.59375 C 8.984375 -29.226562 7.972656 -29.84375 6.765625 -30.4375 C 5.566406 -31.039062 4.363281 -31.71875 3.15625 -32.46875 C 1.957031 -33.226562 0.953125 -34.179688 0.140625 -35.328125 C -0.671875 -36.472656 -1.078125 -37.890625 -1.078125 -39.578125 C -1.078125 -41.617188 -0.535156 -43.132812 0.546875 -44.125 C 1.628906 -45.125 2.648438 -45.625 3.609375 -45.625 C 4.453125 -45.625 5.3125 -45.351562 6.1875 -44.8125 C 7.0625 -44.269531 7.785156 -43.304688 8.359375 -41.921875 C 8.929688 -40.535156 9.21875 -38.546875 9.21875 -35.953125 C 10.78125 -34.992188 12.429688 -34.285156 14.171875 -33.828125 C 15.921875 -33.378906 17.550781 -32.941406 19.0625 -32.515625 C 20.570312 -32.097656 21.789062 -31.5 22.71875 -30.71875 C 23.65625 -29.9375 24.125 -28.671875 24.125 -26.921875 C 24.125 -25.835938 23.804688 -24.691406 23.171875 -23.484375 C 22.535156 -22.285156 21.8125 -20.960938 21 -19.515625 C 20.1875 -18.066406 19.460938 -16.515625 18.828125 -14.859375 C 18.203125 -13.203125 17.890625 -11.378906 17.890625 -9.390625 C 17.890625 -8.546875 18.023438 -7.820312 18.296875 -7.21875 C 18.566406 -6.625 19.03125 -6.328125 19.6875 -6.328125 C 21.675781 -6.328125 24.054688 -8.582031 26.828125 -13.09375 C 29.597656 -17.613281 32.609375 -23.640625 35.859375 -31.171875 C 36.523438 -32.734375 37.3125 -33.585938 38.21875 -33.734375 C 39.125 -33.890625 39.832031 -33.53125 40.34375 -32.65625 C 40.851562 -31.78125 40.835938 -30.53125 40.296875 -28.90625 C 39.023438 -25.113281 37.5625 -21.484375 35.90625 -18.015625 C 34.25 -14.554688 32.425781 -11.472656 30.4375 -8.765625 C 28.457031 -6.054688 26.351562 -3.914062 24.125 -2.34375 C 21.894531 -0.78125 19.601562 0 17.25 0 Z M 17.25 0 "/></g></g></g><g fill="#000000" fill-opacity="1"><g transform="translate(309.967823, 96.586384)"><g/></g></g><g fill="#000000" fill-opacity="1"><g transform="translate(337.071495, 96.586384)"><g><path d="M 17.796875 0 C 14.910156 0 12.488281 -0.707031 10.53125 -2.125 C 8.570312 -3.539062 7.019531 -5.484375 5.875 -7.953125 C 4.726562 -10.421875 3.910156 -13.21875 3.421875 -16.34375 C 2.941406 -19.476562 2.703125 -22.734375 2.703125 -26.109375 C 2.703125 -28.515625 3.179688 -30.648438 4.140625 -32.515625 C 5.109375 -34.390625 6.300781 -35.925781 7.71875 -37.125 C 9.132812 -38.332031 10.535156 -39.207031 11.921875 -39.75 C 13.304688 -40.289062 14.453125 -40.457031 15.359375 -40.25 C 16.265625 -40.039062 16.65625 -39.421875 16.53125 -38.390625 C 15.6875 -31.460938 15.320312 -25.617188 15.4375 -20.859375 C 15.5625 -16.109375 15.953125 -12.5 16.609375 -10.03125 C 17.273438 -7.5625 17.941406 -6.328125 18.609375 -6.328125 C 19.453125 -6.328125 20.3125 -7.003906 21.1875 -8.359375 C 22.0625 -9.710938 22.890625 -11.519531 23.671875 -13.78125 C 24.453125 -16.039062 25.144531 -18.613281 25.75 -21.5 C 26.351562 -24.394531 26.773438 -27.378906 27.015625 -30.453125 C 27.191406 -32.972656 27.941406 -35.03125 29.265625 -36.625 C 30.597656 -38.226562 32.078125 -39.390625 33.703125 -40.109375 C 35.328125 -40.835938 36.710938 -41.050781 37.859375 -40.75 C 39.003906 -40.445312 39.484375 -39.660156 39.296875 -38.390625 C 38.453125 -31.460938 38.148438 -25.617188 38.390625 -20.859375 C 38.628906 -16.109375 39.203125 -12.5 40.109375 -10.03125 C 41.015625 -7.5625 42.039062 -6.328125 43.1875 -6.328125 C 44.144531 -6.328125 45.332031 -7.273438 46.75 -9.171875 C 48.164062 -11.066406 49.460938 -13.59375 50.640625 -16.75 C 51.816406 -19.914062 52.492188 -23.425781 52.671875 -27.28125 C 50.984375 -28.550781 49.71875 -30.296875 48.875 -32.515625 C 48.03125 -34.742188 47.609375 -36.945312 47.609375 -39.125 C 47.609375 -41.226562 48.164062 -42.894531 49.28125 -44.125 C 50.394531 -45.363281 51.707031 -45.984375 53.21875 -45.984375 C 55.445312 -45.984375 57.054688 -44.460938 58.046875 -41.421875 C 59.035156 -38.378906 59.53125 -34.570312 59.53125 -30 C 60.375 -29.09375 61.3125 -28.640625 62.34375 -28.640625 C 63.476562 -28.640625 64.5 -28.910156 65.40625 -29.453125 C 66.3125 -29.992188 66.882812 -30.566406 67.125 -31.171875 C 67.84375 -32.859375 68.640625 -33.757812 69.515625 -33.875 C 70.390625 -34 71.066406 -33.59375 71.546875 -32.65625 C 72.035156 -31.726562 72.035156 -30.476562 71.546875 -28.90625 C 71.003906 -27.164062 69.859375 -25.628906 68.109375 -24.296875 C 66.367188 -22.972656 64.535156 -22.3125 62.609375 -22.3125 C 62.003906 -22.3125 61.335938 -22.414062 60.609375 -22.625 C 59.890625 -22.84375 59.203125 -23.191406 58.546875 -23.671875 C 58.117188 -21.503906 57.40625 -19.078125 56.40625 -16.390625 C 55.414062 -13.710938 54.210938 -11.125 52.796875 -8.625 C 51.390625 -6.125 49.796875 -4.0625 48.015625 -2.4375 C 46.242188 -0.8125 44.300781 0 42.1875 0 C 39.113281 0 36.582031 -0.914062 34.59375 -2.75 C 32.613281 -4.59375 31.019531 -6.988281 29.8125 -9.9375 C 28.3125 -7.164062 26.535156 -4.816406 24.484375 -2.890625 C 22.429688 -0.960938 20.203125 0 17.796875 0 Z M 17.796875 0 "/></g></g></g><g fill="#000000" fill-opacity="1"><g transform="translate(400.855545, 96.586384)"><g><path d="M 13.546875 0 C 9.515625 0 6.171875 -1.488281 3.515625 -4.46875 C 0.867188 -7.445312 -0.453125 -11.53125 -0.453125 -16.71875 C -0.453125 -19.789062 0.0234375 -22.832031 0.984375 -25.84375 C 1.953125 -28.851562 3.296875 -31.617188 5.015625 -34.140625 C 6.734375 -36.671875 8.78125 -38.691406 11.15625 -40.203125 C 13.53125 -41.710938 16.101562 -42.46875 18.875 -42.46875 C 21.101562 -42.46875 22.941406 -41.847656 24.390625 -40.609375 C 25.835938 -39.367188 26.953125 -37.878906 27.734375 -36.140625 C 28.753906 -37.398438 29.988281 -38.359375 31.4375 -39.015625 C 32.882812 -39.679688 34.269531 -40.03125 35.59375 -40.0625 C 36.914062 -40.09375 37.921875 -39.851562 38.609375 -39.34375 C 39.304688 -38.832031 39.414062 -38.035156 38.9375 -36.953125 C 38.269531 -35.441406 37.679688 -33.617188 37.171875 -31.484375 C 36.660156 -29.347656 36.238281 -27.148438 35.90625 -24.890625 C 35.582031 -22.628906 35.328125 -20.535156 35.140625 -18.609375 C 34.960938 -16.679688 34.875 -15.113281 34.875 -13.90625 C 34.875 -10.957031 35.082031 -8.957031 35.5 -7.90625 C 35.925781 -6.851562 36.441406 -6.328125 37.046875 -6.328125 C 38.972656 -6.328125 41.171875 -8.492188 43.640625 -12.828125 C 46.109375 -17.160156 48.90625 -23.273438 52.03125 -31.171875 C 52.695312 -32.734375 53.476562 -33.601562 54.375 -33.78125 C 55.28125 -33.96875 55.988281 -33.609375 56.5 -32.703125 C 57.019531 -31.796875 57.007812 -30.53125 56.46875 -28.90625 C 54.539062 -23.125 52.382812 -18.066406 50 -13.734375 C 47.625 -9.398438 45.203125 -6.023438 42.734375 -3.609375 C 40.265625 -1.203125 37.914062 0 35.6875 0 C 32.851562 0 30.546875 -0.734375 28.765625 -2.203125 C 26.992188 -3.679688 25.6875 -5.6875 24.84375 -8.21875 C 23.519531 -5.925781 21.921875 -3.984375 20.046875 -2.390625 C 18.179688 -0.796875 16.015625 0 13.546875 0 Z M 11.296875 -12.109375 C 11.296875 -10.484375 11.59375 -9.113281 12.1875 -8 C 12.789062 -6.882812 13.578125 -6.328125 14.546875 -6.328125 C 15.804688 -6.328125 17.097656 -7.210938 18.421875 -8.984375 C 19.753906 -10.765625 20.960938 -13.203125 22.046875 -16.296875 C 23.128906 -19.398438 23.878906 -22.941406 24.296875 -26.921875 C 24.660156 -30.296875 24.375 -32.613281 23.4375 -33.875 C 22.507812 -35.144531 21.472656 -35.78125 20.328125 -35.78125 C 19.179688 -35.78125 18.082031 -35.097656 17.03125 -33.734375 C 15.976562 -32.378906 15.015625 -30.570312 14.140625 -28.3125 C 13.265625 -26.0625 12.570312 -23.519531 12.0625 -20.6875 C 11.550781 -17.851562 11.296875 -14.992188 11.296875 -12.109375 Z M 11.296875 -12.109375 "/></g></g></g><g fill="#000000" fill-opacity="1"><g transform="translate(449.551909, 96.586384)"><g><path d="M 14.28125 25.5625 C 11.6875 25.5625 9.648438 25.078125 8.171875 24.109375 C 6.703125 23.148438 5.632812 21.945312 4.96875 20.5 C 4.300781 19.0625 3.96875 17.617188 3.96875 16.171875 C 3.96875 13.523438 4.828125 11.359375 6.546875 9.671875 C 8.265625 7.984375 10.550781 6.351562 13.40625 4.78125 C 16.269531 3.21875 19.453125 1.351562 22.953125 -0.8125 L 23.578125 -5.6875 C 22.253906 -4.0625 20.703125 -2.707031 18.921875 -1.625 C 17.148438 -0.539062 15.390625 0 13.640625 0 C 9.722656 0.0625 6.738281 -1.472656 4.6875 -4.609375 C 2.644531 -7.742188 1.566406 -11.6875 1.453125 -16.4375 C 1.390625 -19.15625 1.550781 -22.03125 1.9375 -25.0625 C 2.332031 -28.101562 3.191406 -31.101562 4.515625 -34.0625 C 5.296875 -35.863281 6.46875 -37.242188 8.03125 -38.203125 C 9.601562 -39.171875 11.171875 -39.757812 12.734375 -39.96875 C 14.304688 -40.1875 15.539062 -40.035156 16.4375 -39.515625 C 17.34375 -39.003906 17.523438 -38.148438 16.984375 -36.953125 C 16.140625 -35.023438 15.445312 -32.78125 14.90625 -30.21875 C 14.363281 -27.65625 13.957031 -25.078125 13.6875 -22.484375 C 13.414062 -19.898438 13.25 -17.585938 13.1875 -15.546875 C 13.1875 -12.773438 13.289062 -10.738281 13.5 -9.4375 C 13.71875 -8.144531 14.019531 -7.300781 14.40625 -6.90625 C 14.800781 -6.519531 15.238281 -6.328125 15.71875 -6.328125 C 16.863281 -6.328125 17.882812 -7.0625 18.78125 -8.53125 C 19.6875 -10.007812 20.5625 -12.03125 21.40625 -14.59375 C 22.25 -17.15625 23.125 -20.101562 24.03125 -23.4375 C 24.9375 -26.78125 25.960938 -30.320312 27.109375 -34.0625 C 27.648438 -35.925781 28.65625 -37.367188 30.125 -38.390625 C 31.601562 -39.421875 33.125 -40.039062 34.6875 -40.25 C 36.257812 -40.457031 37.539062 -40.273438 38.53125 -39.703125 C 39.519531 -39.128906 39.867188 -38.210938 39.578125 -36.953125 C 38.429688 -32.796875 37.539062 -28.425781 36.90625 -23.84375 C 36.269531 -19.269531 35.625 -14.753906 34.96875 -10.296875 C 37.488281 -12.828125 39.96875 -15.78125 42.40625 -19.15625 C 44.851562 -22.53125 47.097656 -26.503906 49.140625 -31.078125 C 49.984375 -32.878906 50.828125 -33.796875 51.671875 -33.828125 C 52.515625 -33.859375 53.160156 -33.375 53.609375 -32.375 C 54.066406 -31.382812 54.023438 -30.226562 53.484375 -28.90625 C 50.953125 -22.40625 47.9375 -17 44.4375 -12.6875 C 40.945312 -8.382812 37.367188 -4.785156 33.703125 -1.890625 C 32.859375 3.222656 31.742188 7.859375 30.359375 12.015625 C 28.972656 16.171875 27.015625 19.46875 24.484375 21.90625 C 21.953125 24.34375 18.550781 25.5625 14.28125 25.5625 Z M 10.390625 16.171875 C 10.390625 17.015625 10.644531 17.722656 11.15625 18.296875 C 11.664062 18.867188 12.4375 19.15625 13.46875 19.15625 C 15.332031 19.15625 16.925781 17.945312 18.25 15.53125 C 19.570312 13.125 20.6875 9.992188 21.59375 6.140625 C 18.34375 8.003906 15.660156 9.675781 13.546875 11.15625 C 11.441406 12.632812 10.390625 14.304688 10.390625 16.171875 Z M 10.390625 16.171875 "/></g></g></g></g></g></svg>